<?xml version="1.0" encoding="UTF-8"?>
<svg width="546px" height="98px" viewBox="0 0 546 98" version="1.1" xmlns="http://www.w3.org/2000/svg" xmlns:xlink="http://www.w3.org/1999/xlink">
    <title>A4 Copy 4</title>
    <defs>
        <filter id="filter-1">
            <feColorMatrix in="SourceGraphic" type="matrix" values="0 0 0 0 0.811276 0 0 0 0 0.768615 0 0 0 0 0.359524 0 0 0 1.000000 0"></feColorMatrix>
        </filter>
    </defs>
    <g id="A4-Copy-4" stroke="none" stroke-width="1" fill="none" fill-rule="evenodd">
        <text id="MÜLLFREI" font-family="CabinetGroteskVariable-Bold_Extrabold, Cabinet Grotesk Variable" font-size="42" font-weight="700" letter-spacing="5.018625" fill="#000000">
            <tspan x="0" y="69">MÜLLFREI</tspan>
        </text>
        <text id="DIEBURG" font-family="CabinetGroteskVariable-Bold_Extrabold, Cabinet Grotesk Variable" font-size="42" font-weight="700" letter-spacing="5.018625" fill="#000000">
            <tspan x="334" y="69">DIEBURG</tspan>
        </text>
        <g filter="url(#filter-1)" id="Group">
            <g transform="translate(250.814452, 9.575690)">
                <path d="M3.84560283,34.4243103 C3.71970913,40.2326428 -7.95176592,75.2929947 11.0578436,76.1741643 C17.2410372,76.4607795 23.4373422,76.4532821 29.6271202,76.3846987 C29.8306799,76.3824432 30.037996,76.1610608 30.0589431,75.9636299 C30.8079141,68.904425 28.0051834,63.1672065 27.6285972,55.9230688 C27.3082103,49.759999 27.6285972,43.5811074 27.6285972,37.4101261" id="Path-6" stroke="#979797" stroke-width="3"></path>
                <path d="M19.1855484,27.4243103 C26.7288315,21.6227885 47.6878888,16.7366645 55.1855484,21.0996309" id="Path-7" stroke="#979797" stroke-width="3"></path>
                <path d="M21.9803467,28.4236129 C27.6398362,28.4236129 9.39067106,28.573365 31.3047535,24.484128 C39.1476857,23.0206121 47.2252834,23.1109162 55.1855484,22.4243103" id="Path-8" stroke="#979797" stroke-width="3"></path>
                <path d="M56.1855484,16.4243103 C55.1613723,29.2956005 54.3920157,33.7430993 54.9428183,46.4391092 C55.1179206,50.4752222 56.4941615,54.486359 56.0909696,58.5071817 C55.985243,59.5615388 54.2696903,59.7196015 53.5324955,60.5035244 C52.3043208,61.8095487 50.9804143,63.1208301 50.2366291,64.7326078 C48.5044752,68.4861737 47.5359087,72.5270759 46.1855484,76.4243103" id="Path-9" stroke="#979797" stroke-width="3"></path>
                <path d="M56.1855484,58.6284687 C57.287618,63.5361664 54.3567151,51.2579795 61.1632043,65.8903145 C62.7108302,69.2173427 63.1781003,72.9129784 64.1855484,76.4243103" id="Path-10" stroke="#979797" stroke-width="3"></path>
                <path d="M57.3190142,0.510073158 C54.7524741,0.510073158 46.6399373,-0.430755444 45.4447878,3.91985631 C44.5242487,7.27082432 46.0307819,15.7497011 50.3568524,16.8013732 C58.6647486,18.8210311 60.9174106,15.8836623 63.0827189,8.65875068 C63.5502563,7.09873424 64.7302796,5.22551412 63.8934254,3.835327 C62.7870674,1.99743829 60.1774358,1.77575191 58.3194408,0.745964274 L57.3190142,0.510073158 Z" id="Path-11" stroke="#979797" stroke-width="3"></path>
                <path d="M50.5632505,3.42431032 C55.1615334,3.59252526 48.2645588,7.63614918 50.739063,3.72656118" id="Path-12" stroke="#979797" fill="#979797"></path>
                <path d="M59.1855484,4.43177125 C54.4560152,5.78586246 59.7014044,8.14508393 58.9336014,4.42431032" id="Path-13" stroke="#979797" fill="#979797"></path>
                <path d="M50.1855484,8.42431032 C50.2858205,13.3342411 53.3871476,13.2906195 56.1855484,10.6269793" id="Path-14" stroke="#979797" stroke-width="3"></path>
            </g>
        </g>
    </g>
</svg>